<?xml version="1.0" encoding="UTF-8" standalone="no"?>
<svg viewBox="0 0 80 80" fill="none" xmlns="http://www.w3.org/2000/svg">
  <path transform="translate(28 28)" fill-rule="evenodd" clip-rule="evenodd" d="M0 5C0 3.34315 1.34315 2 3 2H21C22.6569 2 24 3.34315 24 5V19C24 20.6569 22.6569 22 21 22H3C1.34314 22 0 20.6569 0 19V5ZM3 4C2.44772 4 2 4.44772 2 5V10.5858L4.58579 8C5.36684 7.21895 6.63317 7.21895 7.41421 8L13 13.5858L14.5858 12C15.3668 11.219 16.6332 11.219 17.4142 12L22 16.5858V5C22 4.44772 21.5523 4 21 4H3ZM21.9367 19.3509L16 13.4142L13 16.4142L6 9.41421L2 13.4142V19C2 19.5523 2.44772 20 3 20H21C21.4288 20 21.7946 19.7301 21.9367 19.3509ZM16 8C16 6.89543 16.8954 6 18 6C19.1046 6 20 6.89543 20 8C20 9.10457 19.1046 10 18 10C16.8954 10 16 9.10457 16 8Z" fill="#99A7B5"/>
</svg>
